<svg width="42" height="42" viewBox="0 0 42 42" fill="none" xmlns="http://www.w3.org/2000/svg">
<g clip-path="url(#clip0_3_667)">
<path d="M21 32.9C14.4382 32.9 9.09998 27.5618 9.09998 21C9.09998 14.4382 14.4382 9.10001 21 9.10001C27.5618 9.10001 32.9 14.4382 32.9 21C32.9 27.5618 27.5618 32.9 21 32.9ZM21 10.5C15.2103 10.5 10.5 15.2103 10.5 21C10.5 26.7897 15.2103 31.5 21 31.5C26.7897 31.5 31.5 26.7897 31.5 21C31.5 15.2103 26.7897 10.5 21 10.5Z" fill="#F42F2F"/>
<path d="M21 32.9C17.4671 32.9 14.7 27.6724 14.7 21C14.7 14.3276 17.4671 9.10001 21 9.10001C24.5329 9.10001 27.3 14.3276 27.3 21C27.3 27.6724 24.5329 32.9 21 32.9ZM21 10.5C18.3442 10.5 16.1 15.3083 16.1 21C16.1 26.6917 18.3442 31.5 21 31.5C23.6558 31.5 25.9 26.6917 25.9 21C25.9 15.3083 23.6558 10.5 21 10.5Z" fill="#F42F2F"/>
<path d="M32.2 21.7H9.79998C9.41358 21.7 9.09998 21.3871 9.09998 21C9.09998 20.6129 9.41358 20.3 9.79998 20.3H32.2C32.5864 20.3 32.9 20.6129 32.9 21C32.9 21.3871 32.5864 21.7 32.2 21.7Z" fill="#F42F2F"/>
<path d="M21 32.9C20.6136 32.9 20.3 32.5871 20.3 32.2V9.80001C20.3 9.41291 20.6136 9.10001 21 9.10001C21.3864 9.10001 21.7 9.41291 21.7 9.80001V32.2C21.7 32.5871 21.3864 32.9 21 32.9Z" fill="#F42F2F"/>
<path d="M21 17.5C17.6561 17.5 14.4543 16.3758 11.9854 14.3346C11.8412 14.2156 11.7509 14.0441 11.7341 13.8579C11.7173 13.6717 11.7754 13.4876 11.8958 13.3448C14.1659 10.647 17.4839 9.10001 21 9.10001C24.5154 9.10001 27.8341 10.647 30.1042 13.3441C30.2246 13.4869 30.2827 13.6717 30.2659 13.8572C30.2491 14.0434 30.1588 14.2149 30.0146 14.3339C27.5457 16.3758 24.3439 17.5 21 17.5ZM13.4554 13.7039C15.5862 15.2537 18.2371 16.1 21 16.1C23.7629 16.1 26.4138 15.2537 28.5446 13.7039C26.5692 11.6592 23.8581 10.5 21 10.5C18.1419 10.5 15.4308 11.6592 13.4554 13.7039Z" fill="#F42F2F"/>
<path d="M21 32.9C17.4839 32.9 14.1652 31.353 11.8958 28.6559C11.7754 28.5131 11.7173 28.3283 11.7341 28.1428C11.7509 27.9566 11.8412 27.7851 11.9854 27.6661C14.4543 25.6242 17.6561 24.5 21 24.5C24.3439 24.5 27.5457 25.6242 30.0146 27.6654C30.1588 27.7844 30.2484 27.9559 30.2659 28.1421C30.2827 28.3283 30.2246 28.5124 30.1042 28.6552C27.8341 31.353 24.5154 32.9 21 32.9ZM13.4554 28.2961C15.4308 30.3408 18.1419 31.5 21 31.5C23.8581 31.5 26.5692 30.3408 28.5446 28.2961C26.4138 26.7463 23.7629 25.9 21 25.9C18.2364 25.9 15.5862 26.7463 13.4554 28.2961Z" fill="#F42F2F"/>
<path d="M5.6 42C2.5123 42 0 39.4877 0 36.4C0 33.3123 2.5123 30.8 5.6 30.8C8.6877 30.8 11.2 33.3123 11.2 36.4C11.2 39.4877 8.6877 42 5.6 42ZM5.6 32.2C3.2844 32.2 1.4 34.0837 1.4 36.4C1.4 38.7163 3.2844 40.6 5.6 40.6C7.9156 40.6 9.8 38.7163 9.8 36.4C9.8 34.0837 7.9156 32.2 5.6 32.2Z" fill="#F42F2F"/>
<path d="M3.49999 37.1C3.11359 37.1 2.79999 36.7871 2.79999 36.4C2.79999 34.8558 4.05579 33.6 5.59999 33.6C5.98639 33.6 6.29999 33.9129 6.29999 34.3C6.29999 34.6871 5.98639 35 5.59999 35C4.82789 35 4.19999 35.6279 4.19999 36.4C4.19999 36.7871 3.88639 37.1 3.49999 37.1Z" fill="#333333"/>
<path d="M36.4 42C33.3123 42 30.8 39.4877 30.8 36.4C30.8 33.3123 33.3123 30.8 36.4 30.8C39.4877 30.8 42 33.3123 42 36.4C42 39.4877 39.4877 42 36.4 42ZM36.4 32.2C34.0837 32.2 32.2 34.0837 32.2 36.4C32.2 38.7163 34.0837 40.6 36.4 40.6C38.7163 40.6 40.6 38.7163 40.6 36.4C40.6 34.0837 38.7163 32.2 36.4 32.2Z" fill="#F42F2F"/>
<path d="M34.3 37.1C33.9136 37.1 33.6 36.7871 33.6 36.4C33.6 34.8558 34.8558 33.6 36.4 33.6C36.7864 33.6 37.1 33.9129 37.1 34.3C37.1 34.6871 36.7864 35 36.4 35C35.6279 35 35 35.6279 35 36.4C35 36.7871 34.6864 37.1 34.3 37.1Z" fill="#333333"/>
<path d="M5.6 11.2C2.5123 11.2 0 8.6877 0 5.6C0 2.5123 2.5123 0 5.6 0C8.6877 0 11.2 2.5123 11.2 5.6C11.2 8.6877 8.6877 11.2 5.6 11.2ZM5.6 1.4C3.2844 1.4 1.4 3.2837 1.4 5.6C1.4 7.9163 3.2844 9.8 5.6 9.8C7.9156 9.8 9.8 7.9163 9.8 5.6C9.8 3.2837 7.9156 1.4 5.6 1.4Z" fill="#F42F2F"/>
<path d="M3.49999 6.29999C3.11359 6.29999 2.79999 5.98709 2.79999 5.59999C2.79999 4.05579 4.05579 2.79999 5.59999 2.79999C5.98639 2.79999 6.29999 3.11289 6.29999 3.49999C6.29999 3.88709 5.98639 4.19999 5.59999 4.19999C4.82789 4.19999 4.19999 4.82789 4.19999 5.59999C4.19999 5.98709 3.88639 6.29999 3.49999 6.29999Z" fill="#333333"/>
<path d="M36.4 11.2C33.3123 11.2 30.8 8.6877 30.8 5.6C30.8 2.5123 33.3123 0 36.4 0C39.4877 0 42 2.5123 42 5.6C42 8.6877 39.4877 11.2 36.4 11.2ZM36.4 1.4C34.0837 1.4 32.2 3.2837 32.2 5.6C32.2 7.9163 34.0837 9.8 36.4 9.8C38.7163 9.8 40.6 7.9163 40.6 5.6C40.6 3.2837 38.7163 1.4 36.4 1.4Z" fill="#F42F2F"/>
<path d="M34.3 6.29999C33.9136 6.29999 33.6 5.98709 33.6 5.59999C33.6 4.05579 34.8558 2.79999 36.4 2.79999C36.7864 2.79999 37.1 3.11289 37.1 3.49999C37.1 3.88709 36.7864 4.19999 36.4 4.19999C35.6279 4.19999 35 4.82789 35 5.59999C35 5.98709 34.6864 6.29999 34.3 6.29999Z" fill="#333333"/>
<path d="M13.0837 13.7837C12.9045 13.7837 12.7253 13.7151 12.5888 13.5786L8.57008 9.55991C8.29638 9.28621 8.29638 8.84381 8.57008 8.57011C8.84308 8.29641 9.28688 8.29641 9.55988 8.57011L13.5786 12.5888C13.8523 12.8625 13.8523 13.3049 13.5786 13.5786C13.4421 13.7158 13.2629 13.7837 13.0837 13.7837Z" fill="#F42F2F"/>
<path d="M28.9163 13.7837C28.7371 13.7837 28.5579 13.7151 28.4214 13.5786C28.1477 13.3049 28.1477 12.8625 28.4214 12.5888L32.4401 8.57011C32.7138 8.29641 33.1562 8.29641 33.4299 8.57011C33.7036 8.84381 33.7036 9.28621 33.4299 9.55991L29.4112 13.5786C29.2747 13.7158 29.0955 13.7837 28.9163 13.7837Z" fill="#F42F2F"/>
<path d="M32.935 33.635C32.7558 33.635 32.5766 33.5664 32.4401 33.4299L28.4242 29.4147C28.1505 29.141 28.1505 28.6986 28.4242 28.4249C28.6979 28.1512 29.1403 28.1512 29.414 28.4249L33.4299 32.4401C33.7036 32.7138 33.7036 33.1562 33.4299 33.4299C33.2934 33.5664 33.1142 33.635 32.935 33.635Z" fill="#F42F2F"/>
<path d="M9.06498 33.635C8.88578 33.635 8.70658 33.5664 8.57008 33.4299C8.29638 33.1562 8.29638 32.7138 8.57008 32.4401L12.5888 28.4214C12.8618 28.1477 13.3056 28.1477 13.5786 28.4214C13.8523 28.6951 13.8523 29.1375 13.5786 29.4112L9.55988 33.4299C9.42338 33.5664 9.24418 33.635 9.06498 33.635Z" fill="#F42F2F"/>
</g>
<defs>
<clipPath id="clip0_3_667">
<rect width="42" height="42" fill="white"/>
</clipPath>
</defs>
</svg>
