<svg width="32" height="27" viewBox="0 0 32 27" fill="none" xmlns="http://www.w3.org/2000/svg">
<path fill-rule="evenodd" clip-rule="evenodd" d="M4.74164 22.9663L4.77178 22.918C4.90223 22.7029 5.38388 21.8427 4.73477 21.8427C4.69432 21.8427 4.477 21.8427 4.1798 21.8427C3.24896 21.8427 2.49437 21.0882 2.49437 20.1573C2.49437 16.0564 2.49437 7.40432 2.49437 3.30335C2.49437 2.85638 2.67195 2.42772 2.98806 2.11161C3.30417 1.7955 3.73283 1.61802 4.1798 1.61802H27.7753C28.2223 1.61802 28.651 1.7955 28.9671 2.11161C29.2831 2.42772 29.4607 2.85638 29.4607 3.30335V20.1573C29.4607 21.0882 28.7061 21.8427 27.7753 21.8427C27.4952 21.8427 27.4247 22 27.4461 22.1969C27.3054 22.0513 27.2135 22.2172 27.2135 22.4045C27.2135 22.7145 27.4652 22.9663 27.7753 22.9663C29.3267 22.9663 30.5843 21.7087 30.5843 20.1573C30.5843 16.0564 30.5843 7.40432 30.5843 3.30335C30.5843 2.55837 30.2884 1.84393 29.7615 1.31708C29.2348 0.790328 28.5203 0.494339 27.7753 0.494339C22.5134 0.494339 9.44167 0.494339 4.1798 0.494339C3.43482 0.494339 2.72038 0.790328 2.19353 1.31708C1.66678 1.84393 1.37079 2.55837 1.37079 3.30335V20.1573C1.37079 21.7087 2.62846 22.9663 4.1798 22.9663H4.74164Z" fill="#F42F2F"/>
<path fill-rule="evenodd" clip-rule="evenodd" d="M31.7079 22.4045C31.7079 22.0942 31.4564 21.8427 31.1461 21.8427H19.3483C19.1994 21.8427 19.0565 21.9019 18.9511 22.0073L17.9921 22.9663H13.9631L13.004 22.0073C12.8987 21.9019 12.7558 21.8427 12.6067 21.8427H0.809035C0.498788 21.8427 0.247192 22.0942 0.247192 22.4045V23.5281C0.247192 24.273 0.543181 24.9876 1.06993 25.5143C1.59669 26.0411 2.31123 26.3371 3.0562 26.3371H28.8989C29.6439 26.3371 30.3584 26.0411 30.8851 25.5143C31.412 24.9876 31.7079 24.273 31.7079 23.5281C31.7079 22.9092 31.7079 22.4045 31.7079 22.4045ZM30.5843 22.9663V23.5281C30.5843 23.975 30.4067 24.4038 30.0907 24.7198C29.7746 25.0359 29.3459 25.2135 28.8989 25.2135C23.2809 25.2135 8.67423 25.2135 3.0562 25.2135C2.60924 25.2135 2.18047 25.0359 1.86446 24.7198C1.54835 24.4038 1.37078 23.975 1.37078 23.5281V22.9663H12.374L13.3331 23.9254C13.4385 24.0307 13.5814 24.0899 13.7304 24.0899H18.2247C18.3737 24.0899 18.5167 24.0307 18.622 23.9254L19.581 22.9663H30.5843Z" fill="#F42F2F"/>
<path fill-rule="evenodd" clip-rule="evenodd" d="M15.9411 4.34088C11.5893 4.34088 8.05615 7.87404 8.05615 12.2258C8.05615 16.5775 11.5893 20.1107 15.9411 20.1107C20.2929 20.1107 23.826 16.5775 23.826 12.2258C23.826 7.87404 20.2929 4.34088 15.9411 4.34088ZM15.9411 5.46447C19.6727 5.46447 22.7024 8.49413 22.7024 12.2258C22.7024 15.9575 19.6727 18.9871 15.9411 18.9871C12.2094 18.9871 9.17984 15.9575 9.17984 12.2258C9.17984 8.49413 12.2094 5.46447 15.9411 5.46447Z" fill="#F42F2F"/>
<path fill-rule="evenodd" clip-rule="evenodd" d="M16.2541 19.0659C14.241 17.7301 12.8941 15.162 12.8941 12.2258C12.8941 9.27733 14.2522 6.69989 16.2792 5.3691C16.5384 5.19891 16.6107 4.85024 16.4405 4.59106C16.2703 4.33188 15.9217 4.25967 15.6626 4.42976C13.3528 5.94631 11.7705 8.86595 11.7705 12.2258C11.7705 15.5712 13.3392 18.4803 15.6328 20.0022C15.8912 20.1736 16.2402 20.103 16.4116 19.8446C16.583 19.5863 16.5124 19.2374 16.2541 19.0659Z" fill="#F42F2F"/>
<path fill-rule="evenodd" clip-rule="evenodd" d="M15.6669 5.39196C17.6747 6.72952 19.0174 9.29421 19.0174 12.2258C19.0174 15.1742 17.6592 17.7516 15.6322 19.0825C15.373 19.2527 15.3008 19.6012 15.471 19.8604C15.6411 20.1197 15.9897 20.1919 16.2489 20.0217C18.5587 18.5053 20.1409 15.5855 20.1409 12.2258C20.1409 8.88588 18.5773 5.9808 16.2899 4.45687C16.0318 4.28496 15.6827 4.35493 15.5108 4.613C15.3389 4.87107 15.4089 5.22005 15.6669 5.39196Z" fill="#F42F2F"/>
<path fill-rule="evenodd" clip-rule="evenodd" d="M9.81681 8.20642C11.4996 9.54864 13.6466 10.3544 15.9841 10.3544C18.3217 10.3544 20.4686 9.54864 22.1516 8.20642C22.394 8.01308 22.4338 7.65935 22.2404 7.41685C22.0471 7.17446 21.6933 7.13462 21.4509 7.32796C19.9593 8.51768 18.056 9.23081 15.9841 9.23081C13.9122 9.23081 12.009 8.51768 10.5174 7.32796C10.275 7.13472 9.92117 7.17456 9.72792 7.41695C9.53457 7.65935 9.57441 8.01308 9.81681 8.20642Z" fill="#F42F2F"/>
<path fill-rule="evenodd" clip-rule="evenodd" d="M10.4743 17.194C11.9659 16.0044 13.8692 15.2911 15.941 15.2911C18.013 15.2911 19.9162 16.0044 21.4078 17.194C21.6503 17.3873 22.004 17.3475 22.1974 17.1051C22.3907 16.8627 22.3509 16.509 22.1085 16.3156C20.4256 14.9733 18.2786 14.1676 15.941 14.1676C13.6035 14.1676 11.4566 14.9733 9.77372 16.3156C9.53132 16.5089 9.49148 16.8627 9.68483 17.1051C9.87818 17.3475 10.2319 17.3873 10.4743 17.194Z" fill="#F42F2F"/>
</svg>
