<svg width="100" height="58" viewBox="0 0 100 58" fill="none" xmlns="http://www.w3.org/2000/svg">
<path d="M9.70503 0L0 58H100L95.3846 16.2048L70.2834 11.4594V23.903C71.4286 22.9657 72.701 22.2275 74.1122 21.7002C75.5697 21.1612 77.0619 20.9034 78.6003 20.9034C82.2556 20.9034 85.1822 22.1337 87.38 24.5826C89.6241 27.0315 90.7461 30.3592 90.7461 34.5422C90.7461 37.4364 90.1909 39.979 89.092 42.1701C87.9931 44.3143 86.4777 45.9547 84.5344 47.1147C82.5911 48.2747 80.4164 48.8489 77.9988 48.8489C74.8756 48.8489 72.1689 47.9584 69.8785 46.1774L69.8091 48.181H58.3227V43.1661H62.2209V14.2129H58.3921V9.2097L9.70503 0ZM22.4986 16.3572C21.0411 16.3572 19.8612 15.9119 18.9358 15.0214C18.0104 14.1309 17.5477 12.9943 17.5477 11.6117C17.5477 10.1822 18.0104 9.02222 18.9358 8.13172C19.8612 7.24121 21.0526 6.79596 22.4986 6.79596C23.956 6.79596 25.1128 7.24121 26.0035 8.13172C26.9289 9.02222 27.3916 10.1822 27.3916 11.6117C27.4378 12.9943 26.9983 14.1309 26.0729 15.0214C25.1359 15.9119 23.9445 16.3572 22.4986 16.3572ZM15.1648 43.1778H19.1903V26.5863H15.2342V21.5713H27.1833V43.1778H31.0121V48.1927H15.1648V43.1778ZM47.0792 48.1927C41.6657 48.1927 38.9589 45.5564 38.9589 40.3071V26.598H35.2574V21.583H38.8895V12.8186L46.9404 11.0844V21.583H53.2099V26.598H46.9404V39.0885C46.9404 40.518 47.1833 41.5374 47.6692 42.1701C48.155 42.7442 48.9879 43.0372 50.1793 43.0372H53.5454V48.181H47.0792V48.1927ZM80.4511 40.764C79.1787 42.1467 77.5014 42.838 75.4309 42.838C73.5338 42.838 71.8219 42.2638 70.2834 41.1038V29C71.8219 27.7111 73.5801 27.0549 75.5697 27.0549C77.6403 27.0549 79.2944 27.7463 80.5205 29.1289C81.7929 30.5115 82.4407 32.4449 82.4407 34.9523C82.4291 37.4012 81.7698 39.3345 80.4511 40.764Z" fill="#F42F2F"/>
</svg>
