<svg width="42" height="42" viewBox="0 0 42 42" fill="none" xmlns="http://www.w3.org/2000/svg">
<g clip-path="url(#clip0_3_576)">
<path d="M39.2 8.39999C37.6558 8.39999 36.4 9.65581 36.4 11.2C36.4 12.7441 37.6558 13.9999 39.2 13.9999C40.7442 13.9999 42 12.7442 42 11.2C42 9.65581 40.7442 8.39999 39.2 8.39999ZM39.2 12.6C38.4279 12.6 37.8 11.9721 37.8 11.2C37.8 10.4279 38.4278 9.79994 39.2 9.79994C39.9722 9.79994 40.6 10.4278 40.6 11.2C40.5999 11.9721 39.9721 12.6 39.2 12.6Z" fill="#F42F2F"/>
<path d="M2.79997 31.5C1.25582 31.5 0 32.7558 0 34.3C0 35.8441 1.25582 37.0999 2.79997 37.0999C4.34421 37.0999 5.59995 35.8441 5.59995 34.3C5.59995 32.7558 4.34421 31.5 2.79997 31.5ZM2.79997 35.7C2.02789 35.7 1.39995 35.0721 1.39995 34.3C1.39995 33.5278 2.02781 32.8999 2.79997 32.8999C3.57205 32.8999 4.2 33.5278 4.2 34.3C4.2 35.0721 3.57213 35.7 2.79997 35.7Z" fill="#F42F2F"/>
<path d="M37.8428 9.28479L31.8039 6.36932C31.4552 6.20058 31.0374 6.34758 30.8694 6.69556C30.7014 7.04345 30.8476 7.46205 31.1956 7.63005L37.2345 10.5455C37.3325 10.5931 37.4361 10.6155 37.5383 10.6155C37.7986 10.6155 38.0486 10.4699 38.1689 10.2193C38.3369 9.87139 38.1906 9.45279 37.8428 9.28479Z" fill="#F42F2F"/>
<path d="M31.5 36.4C29.9557 36.4 28.7 37.6558 28.7 39.1999C28.7 40.7441 29.9557 42 31.5 42C33.0442 42 34.3 40.7442 34.3 39.2C34.3 37.6559 33.0442 36.4 31.5 36.4ZM31.5 40.6C30.7279 40.6 30.1 39.9721 30.1 39.1999C30.1 38.4278 30.7279 37.8 31.5 37.8C32.2721 37.8 32.9 38.4279 32.9 39.2C32.9 39.9722 32.2721 40.6 31.5 40.6Z" fill="#F42F2F"/>
<path d="M30.1427 37.2848L24.1038 34.3694C23.7552 34.2006 23.3373 34.347 23.1693 34.6956C23.0013 35.0435 23.1475 35.4621 23.4955 35.6301L29.5344 38.5456C29.6324 38.5932 29.7361 38.6156 29.8382 38.6156C30.0985 38.6156 30.3485 38.4699 30.4689 38.2193C30.6368 37.8714 30.4906 37.4528 30.1427 37.2848Z" fill="#F42F2F"/>
<path d="M21 18.9C19.4557 18.9 18.2 20.1558 18.2 21.7C18.2 23.2442 19.4558 24.4999 21 24.4999C22.5442 24.4999 23.8 23.2441 23.8 21.7C23.8 20.1558 22.5442 18.9 21 18.9ZM21 23.1C20.2279 23.1 19.6 22.4721 19.6 21.7C19.6 20.9279 20.2278 20.2999 21 20.2999C21.7721 20.2999 22.4 20.9278 22.4 21.7C22.4 22.4721 21.7721 23.1 21 23.1Z" fill="#F42F2F"/>
<path d="M19.7694 19.8632L15.1305 16.2477C14.8253 16.0118 14.3857 16.0643 14.1477 16.3695C13.9104 16.6747 13.9643 17.1143 14.2695 17.3523L18.9084 20.9678C19.0365 21.0673 19.1877 21.1156 19.3382 21.1156C19.5468 21.1156 19.7526 21.0232 19.8912 20.8461C20.1285 20.5408 20.0746 20.1012 19.7694 19.8632Z" fill="#F42F2F"/>
<path d="M33.6 18.2C29.3545 18.2 25.9 21.6545 25.9 25.9C25.9 30.1456 29.3545 33.6001 33.6 33.6001C37.8455 33.6001 41.3 30.1456 41.3 25.9C41.3 21.6545 37.8455 18.2 33.6 18.2ZM33.6 32.2C30.1259 32.2 27.3 29.3741 27.3 25.9C27.3 22.4259 30.1259 19.6 33.6 19.6C37.0741 19.6 39.9 22.4259 39.9 25.9C39.9 29.3741 37.0741 32.2 33.6 32.2Z" fill="#F42F2F"/>
<path d="M33.6 21C32.0558 21 30.8 22.2558 30.8 23.8C30.8 25.3442 32.0559 26.5999 33.6 26.5999C35.1443 26.5999 36.4 25.3441 36.4 23.8C36.4 22.2558 35.1443 21 33.6 21ZM33.6 25.2C32.8279 25.2 32.2 24.5721 32.2 23.8C32.2 23.0279 32.8279 22.3999 33.6 22.3999C34.3721 22.3999 35 23.0278 35 23.8C35 24.5721 34.3721 25.2 33.6 25.2Z" fill="#333333"/>
<path d="M35.6307 28H31.5693C30.3731 28 29.4 28.9471 29.4 30.1105V31.9557C29.4 32.2055 29.533 32.4365 29.7493 32.5619C30.9225 33.2409 32.2539 33.6 33.6 33.6C34.9462 33.6 36.2775 33.2409 37.4507 32.5619C37.6671 32.4373 37.8 32.2055 37.8 31.9564V30.1112C37.8 28.9471 36.8271 28 35.6307 28ZM36.4 31.5385C34.6577 32.4064 32.5423 32.4064 30.8 31.5385V30.1112C30.8 29.7192 31.1451 29.4 31.5693 29.4H35.6306C36.0548 29.4 36.3999 29.7192 36.3999 30.1112V31.5385H36.4Z" fill="#F42F2F"/>
<path d="M16.8 26.6C12.5545 26.6 9.09998 30.0545 9.09998 34.3001C9.09998 38.5456 12.5545 42 16.8 42C21.0455 42 24.5 38.5455 24.5 34.3C24.5 30.0545 21.0455 26.6 16.8 26.6ZM16.8 40.6C13.3259 40.6 10.5 37.7741 10.5 34.3C10.5 30.8259 13.3259 28 16.8 28C20.2741 28 23.1 30.8259 23.1 34.3C23.1 37.7741 20.2741 40.6 16.8 40.6Z" fill="#F42F2F"/>
<path d="M16.8 29.4C15.2557 29.4 14 30.6558 14 32.2C14 33.7442 15.2558 34.9999 16.8 34.9999C18.3441 34.9999 19.5999 33.7441 19.5999 32.2C19.5999 30.6558 18.3442 29.4 16.8 29.4ZM16.8 33.6C16.0279 33.6 15.3999 32.9721 15.3999 32.2C15.3999 31.4279 16.0278 30.7999 16.8 30.7999C17.5721 30.7999 18.2 31.4278 18.2 32.2C18.2 32.9721 17.5721 33.6 16.8 33.6Z" fill="#333333"/>
<path d="M18.8307 36.4H14.7693C13.573 36.4 12.6 37.3471 12.6 38.5105V40.3557C12.6 40.6055 12.7329 40.8365 12.9493 40.9619C14.1225 41.6409 15.4538 42 16.8 42C18.1461 42 19.4775 41.6409 20.6507 40.9619C20.867 40.8373 21 40.6056 21 40.3564V38.5112C21 37.3471 20.027 36.4 18.8307 36.4ZM19.5999 39.9385C17.8576 40.8064 15.7423 40.8064 13.9999 39.9385V38.5112C13.9999 38.1192 14.345 37.8 14.7692 37.8H18.8306C19.2548 37.8 19.5999 38.1192 19.5999 38.5112V39.9385H19.5999Z" fill="#F42F2F"/>
<path d="M7.70003 9.09998C3.4545 9.09998 0 12.5545 0 16.8C0 21.0455 3.4545 24.5 7.70003 24.5C11.9456 24.5 15.4001 21.0455 15.4001 16.8C15.4 12.5545 11.9455 9.09998 7.70003 9.09998ZM7.70003 23.1C4.22592 23.1 1.40003 20.2741 1.40003 16.8C1.40003 13.3259 4.22592 10.5 7.70003 10.5C11.1741 10.5 14 13.3259 14 16.8C14 20.2741 11.1741 23.1 7.70003 23.1Z" fill="#F42F2F"/>
<path d="M7.7 11.9C6.15576 11.9 4.90002 13.1558 4.90002 14.7C4.90002 16.2442 6.15584 17.5 7.7 17.5C9.24424 17.5 10.5 16.2442 10.5 14.7C10.5 13.1558 9.24415 11.9 7.7 11.9ZM7.7 16.1C6.92792 16.1 6.29997 15.4722 6.29997 14.7C6.29997 13.9278 6.92784 13.3 7.7 13.3C8.47207 13.3 9.10002 13.9278 9.10002 14.7C9.10002 15.4722 8.47207 16.1 7.7 16.1Z" fill="#333333"/>
<path d="M9.73068 18.9H5.66932C4.47305 18.9 3.5 19.8471 3.5 21.0105V22.8557C3.5 23.1056 3.63297 23.3366 3.84929 23.4619C5.0225 24.1409 6.35387 24.5 7.7 24.5C9.04613 24.5 10.3775 24.1409 11.5507 23.4619C11.767 23.3373 11.9 23.1056 11.9 22.8564V21.0112C11.9 19.8471 10.9269 18.9 9.73068 18.9ZM10.5 22.4385C8.75771 23.3065 6.64229 23.3065 4.89995 22.4385V21.0112C4.89995 20.6192 5.24505 20.3 5.66923 20.3H9.7306C10.1548 20.3 10.4999 20.6192 10.4999 21.0112V22.4385H10.5Z" fill="#F42F2F"/>
<path d="M24.5 0C20.2545 0 16.8 3.4545 16.8 7.70003C16.8 11.9456 20.2545 15.4001 24.5 15.4001C28.7455 15.4001 32.2 11.9456 32.2 7.70003C32.2 3.4545 28.7455 0 24.5 0ZM24.5 14C21.0259 14 18.2 11.1741 18.2 7.70003C18.2 4.22592 21.0259 1.40003 24.5 1.40003C27.9741 1.40003 30.8 4.22592 30.8 7.70003C30.8 11.1741 27.9741 14 24.5 14Z" fill="#F42F2F"/>
<path d="M24.5 2.79999C22.9558 2.79999 21.7001 4.0558 21.7001 5.59996C21.7001 7.14412 22.9559 8.39993 24.5 8.39993C26.0442 8.39993 27.3 7.1442 27.3 5.60004C27.3 4.05589 26.0442 2.79999 24.5 2.79999ZM24.5 6.99999C23.728 6.99999 23.1 6.37212 23.1 5.59996C23.1 4.82788 23.7279 4.19993 24.5 4.19993C25.2722 4.19993 25.9001 4.8278 25.9001 5.59996C25.9 6.37212 25.2721 6.99999 24.5 6.99999Z" fill="#333333"/>
<path d="M26.5307 9.80002H22.4694C21.2731 9.80002 20.3 10.7472 20.3 11.9105V13.7557C20.3 14.0056 20.433 14.2366 20.6493 14.3619C21.8225 15.0409 23.1539 15.4 24.5 15.4C25.8462 15.4 27.1775 15.0409 28.3508 14.3619C28.5671 14.2373 28.7 14.0056 28.7 13.7565V11.9113C28.7 10.7471 27.727 9.80002 26.5307 9.80002ZM27.3 13.3385C25.5578 14.2065 23.4423 14.2065 21.7 13.3385V11.9113C21.7 11.5192 22.0451 11.2 22.4693 11.2H26.5307C26.9548 11.2 27.2999 11.5192 27.2999 11.9113V13.3385H27.3Z" fill="#F42F2F"/>
<path d="M18.0327 7.24426C17.7814 6.95165 17.3397 6.91662 17.0457 7.16797L12.1947 11.319C11.9007 11.5703 11.8664 12.012 12.1177 12.306C12.2563 12.4677 12.4523 12.551 12.6496 12.551C12.8107 12.551 12.9724 12.4957 13.1047 12.3823L17.9557 8.23126C18.2498 7.98 18.284 7.53826 18.0327 7.24426Z" fill="#F42F2F"/>
<path d="M33.46 18.4807L29.26 12.8807C29.0283 12.5706 28.5894 12.5097 28.28 12.7407C27.9705 12.9724 27.9083 13.4113 28.1399 13.72L32.3399 19.32C32.4778 19.5034 32.6878 19.6 32.9006 19.6C33.0462 19.6 33.194 19.5544 33.32 19.4599C33.6294 19.2283 33.6917 18.7894 33.46 18.4807Z" fill="#F42F2F"/>
<path d="M27.7151 28.2149C27.4834 27.9055 27.0445 27.8432 26.7351 28.0749L22.8249 31.0072C22.5155 31.2389 22.4532 31.6778 22.6849 31.9865C22.8228 32.1699 23.0328 32.2664 23.2455 32.2664C23.3918 32.2664 23.5388 32.2202 23.6649 32.1264L27.5751 29.1941C27.8845 28.9625 27.9468 28.5236 27.7151 28.2149Z" fill="#F42F2F"/>
<path d="M9.80004 33.6H4.89998C4.51362 33.6 4.20001 33.9129 4.20001 34.3C4.20001 34.6871 4.51362 34.9999 4.89998 34.9999H9.79996C10.1863 34.9999 10.4999 34.6871 10.4999 34.3C10.4999 33.9129 10.1864 33.6 9.80004 33.6Z" fill="#F42F2F"/>
<path d="M7.70002 0C6.15578 0 4.89996 1.25582 4.89996 2.79997C4.89996 4.34421 6.15578 5.59995 7.69994 5.59995C9.24417 5.59995 10.4999 4.34413 10.4999 2.79997C10.5 1.25582 9.24417 0 7.70002 0ZM7.70002 4.2C6.92794 4.2 6.29999 3.57213 6.29999 2.79997C6.29999 2.02789 6.92786 1.39995 7.70002 1.39995C8.4721 1.39995 9.10005 2.02781 9.10005 2.79997C9.09996 3.57213 8.4721 4.2 7.70002 4.2Z" fill="#F42F2F"/>
<path d="M7.70003 4.20001C7.31367 4.20001 7.00006 4.51288 7.00006 4.89998V9.79996C7.00006 10.1871 7.31367 10.4999 7.70003 10.4999C8.0864 10.4999 8.40001 10.1871 8.40001 9.79996V4.89998C8.40001 4.51288 8.0864 4.20001 7.70003 4.20001Z" fill="#F42F2F"/>
</g>
<defs>
<clipPath id="clip0_3_576">
<rect width="42" height="42" fill="white"/>
</clipPath>
</defs>
</svg>
