<svg width="32" height="26" viewBox="0 0 32 26" fill="none" xmlns="http://www.w3.org/2000/svg">
<path fill-rule="evenodd" clip-rule="evenodd" d="M31.7079 2.86519C31.7079 2.12022 31.412 1.40568 30.8851 0.878925C30.3584 0.352172 29.6439 0.0561829 28.8989 0.0561829C23.2809 0.0561829 8.67423 0.0561829 3.0562 0.0561829C2.31123 0.0561829 1.59669 0.352172 1.06993 0.878925C0.543181 1.40568 0.247192 2.12022 0.247192 2.86519V23.0899C0.247192 23.8349 0.543181 24.5493 1.06993 25.0762C1.59669 25.6029 2.31123 25.8989 3.0562 25.8989H28.8989C29.6439 25.8989 30.3584 25.6029 30.8851 25.0762C31.412 24.5493 31.7079 23.8349 31.7079 23.0899V2.86519ZM30.5843 2.86519V23.0899C30.5843 23.5369 30.4067 23.9655 30.0907 24.2817C29.7746 24.5978 29.3459 24.7752 28.8989 24.7752C23.2809 24.7752 8.67423 24.7752 3.0562 24.7752C2.60924 24.7752 2.18047 24.5978 1.86446 24.2817C1.54835 23.9655 1.37078 23.5369 1.37078 23.0899C1.37078 18.3893 1.37078 7.56582 1.37078 2.86519C1.37078 2.41823 1.54835 1.98946 1.86446 1.67345C2.18047 1.35734 2.60924 1.17977 3.0562 1.17977H28.8989C29.3459 1.17977 29.7746 1.35734 30.0907 1.67345C30.4067 1.98946 30.5843 2.41823 30.5843 2.86519Z" fill="#F42F2F"/>
<path fill-rule="evenodd" clip-rule="evenodd" d="M0.809035 5.67421H31.1461C31.4562 5.67421 31.7079 5.42241 31.7079 5.11236C31.7079 4.80232 31.4562 4.55052 31.1461 4.55052H0.809035C0.49899 4.55052 0.247192 4.80232 0.247192 5.11236C0.247192 5.42241 0.49899 5.67421 0.809035 5.67421Z" fill="#F42F2F"/>
<path fill-rule="evenodd" clip-rule="evenodd" d="M28.899 2.30335H28.3371C28.0271 2.30335 27.7753 2.55515 27.7753 2.8652C27.7753 3.17524 28.0271 3.42694 28.3371 3.42694H28.899C29.209 3.42694 29.4607 3.17524 29.4607 2.8652C29.4607 2.55515 29.209 2.30335 28.899 2.30335Z" fill="#F42F2F"/>
<path fill-rule="evenodd" clip-rule="evenodd" d="M26.09 2.30335H25.5281C25.2181 2.30335 24.9664 2.55515 24.9664 2.8652C24.9664 3.17524 25.2181 3.42694 25.5281 3.42694H26.09C26.4 3.42694 26.6517 3.17524 26.6517 2.8652C26.6517 2.55515 26.4 2.30335 26.09 2.30335Z" fill="#F42F2F"/>
<path fill-rule="evenodd" clip-rule="evenodd" d="M11.4832 2.30335H3.05623C2.74618 2.30335 2.49438 2.55515 2.49438 2.8652C2.49438 3.17524 2.74618 3.42694 3.05623 3.42694H11.4832C11.7933 3.42694 12.045 3.17524 12.045 2.8652C12.045 2.55515 11.7933 2.30335 11.4832 2.30335Z" fill="#F42F2F"/>
<path fill-rule="evenodd" clip-rule="evenodd" d="M14.854 7.92137C11.4433 7.92137 8.67426 10.6904 8.67426 14.1011C8.67426 17.5118 11.4433 20.2809 14.854 20.2809C18.2647 20.2809 21.0338 17.5118 21.0338 14.1011C21.0338 10.6904 18.2647 7.92137 14.854 7.92137ZM14.854 9.04496C17.6445 9.04496 19.9102 11.3105 19.9102 14.1011C19.9102 16.8917 17.6445 19.1573 14.854 19.1573C12.0634 19.1573 9.79784 16.8917 9.79784 14.1011C9.79784 11.3105 12.0634 9.04496 14.854 9.04496Z" fill="#F42F2F"/>
<path fill-rule="evenodd" clip-rule="evenodd" d="M19.9377 16.8013C19.8184 16.6821 19.6521 16.6228 19.4843 16.6396C19.3166 16.6564 19.1653 16.7477 19.0721 16.8883C18.6961 17.4558 18.2086 17.9432 17.6411 18.3193C17.5006 18.4124 17.4093 18.5637 17.3925 18.7315C17.3756 18.8992 17.4349 19.0657 17.5542 19.1848L20.4037 22.0345C21.0615 22.6922 22.1295 22.6922 22.7872 22.0345C23.445 21.3767 23.445 20.3087 22.7872 19.6509L19.9377 16.8013ZM19.6021 18.0549L21.9928 20.4454C22.212 20.6647 22.212 21.0207 21.9928 21.24C21.7736 21.4592 21.4175 21.4592 21.1983 21.24L18.8077 18.8494C19.0959 18.609 19.3619 18.3431 19.6021 18.0549Z" fill="#F42F2F"/>
</svg>
