<svg width="32" height="26" viewBox="0 0 32 26" fill="none" xmlns="http://www.w3.org/2000/svg">
<path fill-rule="evenodd" clip-rule="evenodd" d="M31.7079 2.86519C31.7079 2.12022 31.412 1.40568 30.8851 0.878925C30.3584 0.352172 29.6439 0.0561829 28.8989 0.0561829C23.2809 0.0561829 8.67423 0.0561829 3.0562 0.0561829C2.31123 0.0561829 1.59669 0.352172 1.06993 0.878925C0.543181 1.40568 0.247192 2.12022 0.247192 2.86519V23.0899C0.247192 23.8349 0.543181 24.5493 1.06993 25.0762C1.59669 25.6029 2.31123 25.8989 3.0562 25.8989H28.8989C29.6439 25.8989 30.3584 25.6029 30.8851 25.0762C31.412 24.5493 31.7079 23.8349 31.7079 23.0899V2.86519ZM30.5843 2.86519V23.0899C30.5843 23.5369 30.4067 23.9655 30.0907 24.2817C29.7746 24.5978 29.3459 24.7752 28.8989 24.7752C23.2809 24.7752 8.67423 24.7752 3.0562 24.7752C2.60924 24.7752 2.18047 24.5978 1.86446 24.2817C1.54835 23.9655 1.37078 23.5369 1.37078 23.0899C1.37078 18.3893 1.37078 7.56582 1.37078 2.86519C1.37078 2.41823 1.54835 1.98946 1.86446 1.67345C2.18047 1.35734 2.60924 1.17977 3.0562 1.17977H28.8989C29.3459 1.17977 29.7746 1.35734 30.0907 1.67345C30.4067 1.98946 30.5843 2.41823 30.5843 2.86519Z" fill="#F42F2F"/>
<path fill-rule="evenodd" clip-rule="evenodd" d="M0.809035 5.67421H31.1461C31.4562 5.67421 31.7079 5.42241 31.7079 5.11236C31.7079 4.80232 31.4562 4.55052 31.1461 4.55052H0.809035C0.49899 4.55052 0.247192 4.80232 0.247192 5.11236C0.247192 5.42241 0.49899 5.67421 0.809035 5.67421Z" fill="#F42F2F"/>
<path fill-rule="evenodd" clip-rule="evenodd" d="M28.899 2.30335H28.3371C28.0271 2.30335 27.7753 2.55515 27.7753 2.8652C27.7753 3.17524 28.0271 3.42694 28.3371 3.42694H28.899C29.209 3.42694 29.4607 3.17524 29.4607 2.8652C29.4607 2.55515 29.209 2.30335 28.899 2.30335Z" fill="#F42F2F"/>
<path fill-rule="evenodd" clip-rule="evenodd" d="M26.0899 2.30335H25.528C25.218 2.30335 24.9663 2.55515 24.9663 2.8652C24.9663 3.17524 25.218 3.42694 25.528 3.42694H26.0899C26.3999 3.42694 26.6516 3.17524 26.6516 2.8652C26.6516 2.55515 26.3999 2.30335 26.0899 2.30335Z" fill="#F42F2F"/>
<path fill-rule="evenodd" clip-rule="evenodd" d="M11.4832 2.30335H3.05623C2.74618 2.30335 2.49438 2.55515 2.49438 2.8652C2.49438 3.17524 2.74618 3.42694 3.05623 3.42694H11.4832C11.7933 3.42694 12.045 3.17524 12.045 2.8652C12.045 2.55515 11.7933 2.30335 11.4832 2.30335Z" fill="#F42F2F"/>
<path fill-rule="evenodd" clip-rule="evenodd" d="M16.6415 13.999C16.6415 14.3092 16.8931 14.5607 17.2033 14.5607H22.7191C23.0295 14.5607 23.281 14.3092 23.281 13.999C23.281 10.6446 20.5577 7.92137 17.2033 7.92137C16.8931 7.92137 16.6415 8.17287 16.6415 8.48311V13.999ZM17.7652 13.4372V9.07651C20.0509 9.33498 21.8673 11.1515 22.1258 13.4373L17.7652 13.4372Z" fill="#F42F2F"/>
<path fill-rule="evenodd" clip-rule="evenodd" d="M15.3136 10.9347C15.3136 10.6244 15.0621 10.3728 14.7518 10.3728C11.3975 10.3728 8.67419 13.0962 8.67419 16.4504C8.67419 19.8048 11.3975 22.5281 14.7518 22.5281C18.1061 22.5281 20.8295 19.8048 20.8295 16.4504C20.8295 16.1402 20.5779 15.8887 20.2676 15.8887H15.3136V10.9347ZM14.19 11.528V16.4504C14.19 16.7607 14.4415 17.0123 14.7518 17.0123H19.6742C19.3949 19.4823 17.2961 21.4045 14.7518 21.4045C12.0175 21.4045 9.79778 19.1846 9.79778 16.4504C9.79778 13.9062 11.7198 11.8073 14.19 11.5279V11.528Z" fill="#F42F2F"/>
</svg>
