<svg width="42" height="42" viewBox="0 0 42 42" fill="none" xmlns="http://www.w3.org/2000/svg">
<g clip-path="url(#clip0_3_709)">
<path d="M21 36.4001C12.5084 36.4001 5.60022 29.4919 5.60022 21.0004C5.60022 12.5088 12.5084 5.60062 21 5.60062C21.3864 5.60062 21.7 5.91351 21.7 6.3006C21.7 6.6877 21.3864 7.00059 21 7.00059C13.2805 7.00059 7.0002 13.2809 7.0002 21.0004C7.0002 28.7198 13.2805 35.0001 21 35.0001C28.7194 35.0001 34.9997 28.7198 34.9997 21.0004C34.9997 20.6133 35.3133 20.3004 35.6997 20.3004C36.0861 20.3004 36.3997 20.6133 36.3997 21.0004C36.3997 29.4919 29.4915 36.4001 21 36.4001Z" fill="#F42F2F"/>
<path d="M21 30.8002C15.5961 30.8002 11.2002 26.4042 11.2002 21.0003C11.2002 15.5964 15.5961 11.2005 21 11.2005C21.3864 11.2005 21.7 11.5134 21.7 11.9005C21.7 12.2876 21.3864 12.6005 21 12.6005C16.3682 12.6005 12.6002 16.3685 12.6002 21.0003C12.6002 25.6322 16.3682 29.4002 21 29.4002C25.6319 29.4002 29.3999 25.6322 29.3999 21.0003C29.3999 20.6132 29.7135 20.3003 30.0999 20.3003C30.4863 20.3003 30.7999 20.6132 30.7999 21.0003C30.7999 26.4042 26.4039 30.8002 21 30.8002Z" fill="#F42F2F"/>
<path d="M21 25.2003C18.6837 25.2003 16.8 23.3166 16.8 21.0003C16.8 18.6841 18.6837 16.8004 21 16.8004C23.3162 16.8004 25.1999 18.6841 25.1999 21.0003C25.1999 23.3166 23.3162 25.2003 21 25.2003ZM21 18.2004C19.4558 18.2004 18.2 19.4562 18.2 21.0003C18.2 22.5445 19.4558 23.8003 21 23.8003C22.5442 23.8003 23.7999 22.5445 23.7999 21.0003C23.7999 19.4562 22.5442 18.2004 21 18.2004Z" fill="#333333"/>
<path d="M21 21.7003C20.8208 21.7003 20.6416 21.6318 20.5051 21.4953C20.2314 21.2216 20.2314 20.7792 20.5051 20.5055L33.1049 7.90568C33.3786 7.63199 33.821 7.63199 34.0946 7.90568C34.3683 8.17938 34.3683 8.62177 34.0946 8.89546L21.4949 21.4953C21.3584 21.6318 21.1792 21.7003 21 21.7003Z" fill="#F42F2F"/>
<path d="M33.5998 9.10054C33.5095 9.10054 33.4185 9.08374 33.3317 9.04734C33.0706 8.93884 32.8998 8.68335 32.8998 8.40055V4.90061C32.8998 4.71441 32.9733 4.53661 33.1049 4.40572L37.3048 0.205786C37.505 0.00488917 37.8053 -0.0553098 38.0678 0.0538883C38.3289 0.161687 38.4997 0.417882 38.4997 0.700678V4.20062C38.4997 4.38682 38.4262 4.56461 38.2946 4.69551L34.0947 8.89544C33.961 9.02914 33.7818 9.10054 33.5998 9.10054ZM34.2998 5.1904V6.71078L37.0997 3.91082V2.39045L34.2998 5.1904Z" fill="#F42F2F"/>
<path d="M37.0997 9.10055H33.5998C33.317 9.10055 33.0615 8.93045 32.953 8.66865C32.8445 8.40686 32.9047 8.10586 33.1049 7.90567L37.3048 3.70574C37.4357 3.57414 37.6142 3.50064 37.7997 3.50064H41.2997C41.5824 3.50064 41.8379 3.67074 41.9464 3.93253C42.0549 4.19433 41.9947 4.49532 41.7945 4.69552L37.5946 8.89545C37.4637 9.02635 37.2852 9.10055 37.0997 9.10055ZM35.2896 7.70057H36.8099L39.6099 4.90062H38.0895L35.2896 7.70057Z" fill="#F42F2F"/>
<path d="M21 42C9.42081 42 0.000366211 32.5796 0.000366211 21.0004C0.000366211 9.42114 9.42081 0.000701904 21 0.000701904C21.3864 0.000701904 21.7 0.313597 21.7 0.70069C21.7 1.08778 21.3864 1.40068 21 1.40068C10.1929 1.40068 1.40034 10.1932 1.40034 21.0004C1.40034 31.8075 10.1929 40.6 21 40.6C31.8071 40.6 40.5997 31.8075 40.5997 21.0004C40.5997 20.6133 40.9133 20.3004 41.2997 20.3004C41.6861 20.3004 41.9997 20.6133 41.9997 21.0004C41.9997 32.5796 32.5792 42 21 42Z" fill="#F42F2F"/>
</g>
<defs>
<clipPath id="clip0_3_709">
<rect width="42" height="42" fill="white"/>
</clipPath>
</defs>
</svg>
