<svg width="32" height="27" viewBox="0 0 32 27" fill="none" xmlns="http://www.w3.org/2000/svg">
<path fill-rule="evenodd" clip-rule="evenodd" d="M30.5843 9.04496C30.5843 9.04496 30.5843 5.36153 30.5843 2.86519C30.5843 2.12022 30.2884 1.40568 29.7615 0.878925C29.2348 0.352172 28.5203 0.0561829 27.7753 0.0561829C22.3337 0.0561829 8.49777 0.0561829 3.0562 0.0561829C2.31123 0.0561829 1.59669 0.352172 1.06993 0.878925C0.543181 1.40568 0.247192 2.12022 0.247192 2.86519V19.1573C0.247192 19.9023 0.543181 20.6167 1.06993 21.1436C1.59669 21.6703 2.31123 21.9663 3.0562 21.9663H22.1573C22.4674 21.9663 22.7191 21.7145 22.7191 21.4045C22.7191 21.0944 22.4674 20.8427 22.1573 20.8427C22.1573 20.8427 8.53923 20.8427 3.0562 20.8427C2.60924 20.8427 2.18047 20.6652 1.86446 20.3491C1.54835 20.0329 1.37078 19.6043 1.37078 19.1573C1.37078 15.1606 1.37078 6.8619 1.37078 2.86519C1.37078 2.41823 1.54835 1.98946 1.86446 1.67345C2.18047 1.35734 2.60924 1.17977 3.0562 1.17977H27.7753C28.2223 1.17977 28.651 1.35734 28.9671 1.67345C29.2831 1.98946 29.4607 2.41823 29.4607 2.86519V9.04496C29.4607 9.355 29.7124 9.6067 30.0225 9.6067C30.3326 9.6067 30.5843 9.355 30.5843 9.04496Z" fill="#F42F2F"/>
<path fill-rule="evenodd" clip-rule="evenodd" d="M0.809035 18.5955H22.1573C22.4674 18.5955 22.7191 18.3438 22.7191 18.0337C22.7191 17.7237 22.4674 17.4719 22.1573 17.4719H0.809035C0.49899 17.4719 0.247192 17.7237 0.247192 18.0337C0.247192 18.3438 0.49899 18.5955 0.809035 18.5955Z" fill="#F42F2F"/>
<path fill-rule="evenodd" clip-rule="evenodd" d="M17.6272 21.2072C17.545 20.988 17.3354 20.8427 17.1012 20.8427H13.7304C13.4962 20.8427 13.2866 20.988 13.2044 21.2072L11.5189 25.7016C11.4542 25.8741 11.4783 26.0674 11.5832 26.2189C11.6881 26.3704 11.8607 26.4607 12.045 26.4607H18.7866C18.9708 26.4607 19.1433 26.3704 19.2483 26.2189C19.3533 26.0674 19.3772 25.8741 19.3125 25.7016L17.6272 21.2072ZM16.7118 21.9663L17.9759 25.3371H12.8557L14.1197 21.9663H16.7118Z" fill="#F42F2F"/>
<path fill-rule="evenodd" clip-rule="evenodd" d="M10.3595 26.4607H20.4719C20.7819 26.4607 21.0337 26.209 21.0337 25.8989C21.0337 25.5888 20.7819 25.3371 20.4719 25.3371H10.3595C10.0495 25.3371 9.79779 25.5888 9.79779 25.8989C9.79779 26.209 10.0495 26.4607 10.3595 26.4607Z" fill="#F42F2F"/>
<path fill-rule="evenodd" clip-rule="evenodd" d="M31.7079 10.7303C31.7079 9.4893 30.7018 8.48312 29.4607 8.48312H23.8427C22.6017 8.48312 21.5955 9.4893 21.5955 10.7303V23.0899C21.5955 24.331 22.6017 25.3371 23.8427 25.3371H29.4607C30.7018 25.3371 31.7079 24.331 31.7079 23.0899V10.7303ZM30.5843 10.7303V23.0899C30.5843 23.7104 30.0813 24.2135 29.4607 24.2135H23.8428C23.2222 24.2135 22.7192 23.7104 22.7191 23.0899V10.7303C22.7192 10.1098 23.2222 9.6068 23.8427 9.6067H29.4607C30.0813 9.6068 30.5843 10.1098 30.5843 10.7303Z" fill="#F42F2F"/>
<path fill-rule="evenodd" clip-rule="evenodd" d="M25.809 23.0899H27.4945C27.8045 23.0899 28.0562 22.8381 28.0562 22.5281C28.0562 22.218 27.8045 21.9663 27.4945 21.9663H25.809C25.499 21.9663 25.2472 22.218 25.2472 22.5281C25.2472 22.8381 25.499 23.0899 25.809 23.0899Z" fill="#F42F2F"/>
</svg>
